<?xml version="1.0" encoding="UTF-8"?>
<!--Generator: Apple Native CoreSVG 149-->
<!DOCTYPE svg
PUBLIC "-//W3C//DTD SVG 1.1//EN"
       "http://www.w3.org/Graphics/SVG/1.1/DTD/svg11.dtd">
<svg version="1.1" xmlns="http://www.w3.org/2000/svg" xmlns:xlink="http://www.w3.org/1999/xlink" width="3300" height="2200">
 <!--glyph: "uni100360.medium", point size: 100.0, font version: "17.0d9e1", template writer version: "59"-->
 <g id="Notes">
  <rect height="2200" id="artboard" style="fill:white;opacity:1" width="3300" x="0" y="0"/>
  <line style="fill:none;stroke:black;opacity:1;stroke-width:0.5;" x1="263" x2="3036" y1="292" y2="292"/>
  <text style="stroke:none;fill:black;font-family:sans-serif;font-size:13;font-weight:bold;" transform="matrix(1 0 0 1 263 322)">Weight/Scale Variations</text>
  <text style="stroke:none;fill:black;font-family:sans-serif;font-size:13;text-anchor:middle;" transform="matrix(1 0 0 1 559.711 322)">Ultralight</text>
  <text style="stroke:none;fill:black;font-family:sans-serif;font-size:13;text-anchor:middle;" transform="matrix(1 0 0 1 856.422 322)">Thin</text>
  <text style="stroke:none;fill:black;font-family:sans-serif;font-size:13;text-anchor:middle;" transform="matrix(1 0 0 1 1153.13 322)">Light</text>
  <text style="stroke:none;fill:black;font-family:sans-serif;font-size:13;text-anchor:middle;" transform="matrix(1 0 0 1 1449.84 322)">Regular</text>
  <text style="stroke:none;fill:black;font-family:sans-serif;font-size:13;text-anchor:middle;" transform="matrix(1 0 0 1 1746.56 322)">Medium</text>
  <text style="stroke:none;fill:black;font-family:sans-serif;font-size:13;text-anchor:middle;" transform="matrix(1 0 0 1 2043.27 322)">Semibold</text>
  <text style="stroke:none;fill:black;font-family:sans-serif;font-size:13;text-anchor:middle;" transform="matrix(1 0 0 1 2339.98 322)">Bold</text>
  <text style="stroke:none;fill:black;font-family:sans-serif;font-size:13;text-anchor:middle;" transform="matrix(1 0 0 1 2636.69 322)">Heavy</text>
  <text style="stroke:none;fill:black;font-family:sans-serif;font-size:13;text-anchor:middle;" transform="matrix(1 0 0 1 2933.4 322)">Black</text>
  <line style="fill:none;stroke:black;opacity:1;stroke-width:0.5;" x1="263" x2="3036" y1="1903" y2="1903"/>
  <g transform="matrix(1 0 0 1 263 1933)">
   <path d="M9.24805 0.830078Q10.8691 0.830078 12.2949 0.214844Q13.7207-0.400391 14.8096-1.49414Q15.8984-2.58789 16.5186-4.01367Q17.1387-5.43945 17.1387-7.05078Q17.1387-8.66211 16.5186-10.0879Q15.8984-11.5137 14.8047-12.6074Q13.7109-13.7012 12.2852-14.3164Q10.8594-14.9316 9.23828-14.9316Q7.62695-14.9316 6.20117-14.3164Q4.77539-13.7012 3.69141-12.6074Q2.60742-11.5137 1.9873-10.0879Q1.36719-8.66211 1.36719-7.05078Q1.36719-5.43945 1.9873-4.01367Q2.60742-2.58789 3.69629-1.49414Q4.78516-0.400391 6.21094 0.214844Q7.63672 0.830078 9.24805 0.830078ZM9.24805-0.654297Q7.91992-0.654297 6.7627-1.14746Q5.60547-1.64062 4.73145-2.51953Q3.85742-3.39844 3.36426-4.56055Q2.87109-5.72266 2.87109-7.05078Q2.87109-8.37891 3.35938-9.54102Q3.84766-10.7031 4.72168-11.582Q5.5957-12.4609 6.75293-12.9541Q7.91016-13.4473 9.23828-13.4473Q10.5762-13.4473 11.7334-12.9541Q12.8906-12.4609 13.7695-11.582Q14.6484-10.7031 15.1465-9.54102Q15.6445-8.37891 15.6445-7.05078Q15.6445-5.72266 15.1514-4.56055Q14.6582-3.39844 13.7842-2.51953Q12.9102-1.64062 11.748-1.14746Q10.5859-0.654297 9.24805-0.654297ZM5.83984-7.04102Q5.83984-6.71875 6.04492-6.51855Q6.25-6.31836 6.5918-6.31836L8.50586-6.31836L8.50586-4.39453Q8.50586-4.0625 8.70605-3.85742Q8.90625-3.65234 9.22852-3.65234Q9.56055-3.65234 9.76562-3.85742Q9.9707-4.0625 9.9707-4.39453L9.9707-6.31836L11.8945-6.31836Q12.2266-6.31836 12.4316-6.51855Q12.6367-6.71875 12.6367-7.04102Q12.6367-7.37305 12.4316-7.57812Q12.2266-7.7832 11.8945-7.7832L9.9707-7.7832L9.9707-9.69727Q9.9707-10.0391 9.76562-10.2441Q9.56055-10.4492 9.22852-10.4492Q8.90625-10.4492 8.70605-10.2441Q8.50586-10.0391 8.50586-9.69727L8.50586-7.7832L6.5918-7.7832Q6.25-7.7832 6.04492-7.57812Q5.83984-7.37305 5.83984-7.04102Z"/>
  </g>
  <g transform="matrix(1 0 0 1 281.867 1933)">
   <path d="M11.709 2.91016Q13.75 2.91016 15.5518 2.12891Q17.3535 1.34766 18.7305-0.0292969Q20.1074-1.40625 20.8887-3.20801Q21.6699-5.00977 21.6699-7.05078Q21.6699-9.0918 20.8887-10.8936Q20.1074-12.6953 18.7305-14.0723Q17.3535-15.4492 15.5469-16.2305Q13.7402-17.0117 11.6992-17.0117Q9.6582-17.0117 7.85645-16.2305Q6.05469-15.4492 4.68262-14.0723Q3.31055-12.6953 2.5293-10.8936Q1.74805-9.0918 1.74805-7.05078Q1.74805-5.00977 2.5293-3.20801Q3.31055-1.40625 4.6875-0.0292969Q6.06445 1.34766 7.86621 2.12891Q9.66797 2.91016 11.709 2.91016ZM11.709 1.25Q9.98047 1.25 8.47656 0.605469Q6.97266-0.0390625 5.83496-1.17676Q4.69727-2.31445 4.05762-3.81836Q3.41797-5.32227 3.41797-7.05078Q3.41797-8.7793 4.05762-10.2832Q4.69727-11.7871 5.83008-12.9297Q6.96289-14.0723 8.4668-14.7119Q9.9707-15.3516 11.6992-15.3516Q13.4277-15.3516 14.9316-14.7119Q16.4355-14.0723 17.5781-12.9297Q18.7207-11.7871 19.3652-10.2832Q20.0098-8.7793 20.0098-7.05078Q20.0098-5.32227 19.3701-3.81836Q18.7305-2.31445 17.5928-1.17676Q16.4551-0.0390625 14.9463 0.605469Q13.4375 1.25 11.709 1.25ZM7.39258-7.04102Q7.39258-6.68945 7.62695-6.46484Q7.86133-6.24023 8.23242-6.24023L10.8789-6.24023L10.8789-3.57422Q10.8789-3.21289 11.1035-2.9834Q11.3281-2.75391 11.6797-2.75391Q12.0508-2.75391 12.2852-2.9834Q12.5195-3.21289 12.5195-3.57422L12.5195-6.24023L15.1758-6.24023Q15.5371-6.24023 15.7715-6.46484Q16.0059-6.68945 16.0059-7.04102Q16.0059-7.41211 15.7715-7.6416Q15.5371-7.87109 15.1758-7.87109L12.5195-7.87109L12.5195-10.5176Q12.5195-10.8984 12.2852-11.1279Q12.0508-11.3574 11.6797-11.3574Q11.3281-11.3574 11.1035-11.1279Q10.8789-10.8984 10.8789-10.5176L10.8789-7.87109L8.23242-7.87109Q7.85156-7.87109 7.62207-7.6416Q7.39258-7.41211 7.39258-7.04102Z"/>
  </g>
  <g transform="matrix(1 0 0 1 305.646 1933)">
   <path d="M14.9707 5.66406Q17.0605 5.66406 18.96 5.01465Q20.8594 4.36523 22.4512 3.19336Q24.043 2.02148 25.2197 0.429688Q26.3965-1.16211 27.0459-3.06641Q27.6953-4.9707 27.6953-7.05078Q27.6953-9.14062 27.0459-11.04Q26.3965-12.9395 25.2197-14.5312Q24.043-16.123 22.4512-17.2998Q20.8594-18.4766 18.9551-19.126Q17.0508-19.7754 14.9609-19.7754Q12.8711-19.7754 10.9717-19.126Q9.07227-18.4766 7.48535-17.2998Q5.89844-16.123 4.72168-14.5312Q3.54492-12.9395 2.90039-11.04Q2.25586-9.14062 2.25586-7.05078Q2.25586-4.9707 2.90527-3.06641Q3.55469-1.16211 4.72656 0.429688Q5.89844 2.02148 7.49023 3.19336Q9.08203 4.36523 10.9814 5.01465Q12.8809 5.66406 14.9707 5.66406ZM14.9707 3.84766Q13.1641 3.84766 11.5283 3.2959Q9.89258 2.74414 8.53516 1.74805Q7.17773 0.751953 6.17676-0.610352Q5.17578-1.97266 4.62891-3.6084Q4.08203-5.24414 4.08203-7.05078Q4.08203-8.86719 4.62891-10.5029Q5.17578-12.1387 6.17188-13.501Q7.16797-14.8633 8.52539-15.8594Q9.88281-16.8555 11.5186-17.4023Q13.1543-17.9492 14.9609-17.9492Q16.7773-17.9492 18.4131-17.4023Q20.0488-16.8555 21.4111-15.8594Q22.7734-14.8633 23.7695-13.501Q24.7656-12.1387 25.3174-10.5029Q25.8691-8.86719 25.8691-7.05078Q25.8789-5.24414 25.332-3.6084Q24.7852-1.97266 23.7842-0.610352Q22.7832 0.751953 21.4209 1.74805Q20.0586 2.74414 18.4229 3.2959Q16.7871 3.84766 14.9707 3.84766ZM9.45312-7.04102Q9.45312-6.66016 9.71191-6.41113Q9.9707-6.16211 10.3711-6.16211L14.0625-6.16211L14.0625-2.46094Q14.0625-2.06055 14.3115-1.80664Q14.5605-1.55273 14.9414-1.55273Q15.3516-1.55273 15.6055-1.80664Q15.8594-2.06055 15.8594-2.46094L15.8594-6.16211L19.5605-6.16211Q19.9609-6.16211 20.2148-6.41113Q20.4688-6.66016 20.4688-7.04102Q20.4688-7.45117 20.2148-7.70508Q19.9609-7.95898 19.5605-7.95898L15.8594-7.95898L15.8594-11.6504Q15.8594-12.0605 15.6055-12.3145Q15.3516-12.5684 14.9414-12.5684Q14.5605-12.5684 14.3115-12.3096Q14.0625-12.0508 14.0625-11.6504L14.0625-7.95898L10.3711-7.95898Q9.96094-7.95898 9.70703-7.70508Q9.45312-7.45117 9.45312-7.04102Z"/>
  </g>
  <text style="stroke:none;fill:black;font-family:sans-serif;font-size:13;font-weight:bold;" transform="matrix(1 0 0 1 263 1953)">Design Variations</text>
  <text style="stroke:none;fill:black;font-family:sans-serif;font-size:13;" transform="matrix(1 0 0 1 263 1971)">Symbols are supported in up to nine weights and three scales.</text>
  <text style="stroke:none;fill:black;font-family:sans-serif;font-size:13;" transform="matrix(1 0 0 1 263 1989)">For optimal layout with text and other symbols, vertically align</text>
  <text style="stroke:none;fill:black;font-family:sans-serif;font-size:13;" transform="matrix(1 0 0 1 263 2007)">symbols with the adjacent text.</text>
  <line style="fill:none;stroke:#00AEEF;stroke-width:0.5;opacity:1.0;" x1="776" x2="776" y1="1919" y2="1933"/>
  <g transform="matrix(1 0 0 1 776 1933)">
   <path d="M3.31055 0.15625Q3.70117 0.15625 3.91602-0.00976562Q4.13086-0.175781 4.26758-0.585938L5.52734-4.0332L11.2891-4.0332L12.5488-0.585938Q12.6855-0.175781 12.9004-0.00976562Q13.1152 0.15625 13.4961 0.15625Q13.8867 0.15625 14.1162-0.0585938Q14.3457-0.273438 14.3457-0.644531Q14.3457-0.869141 14.2383-1.17188L9.6582-13.3691Q9.48242-13.8184 9.17969-14.043Q8.87695-14.2676 8.4082-14.2676Q7.5-14.2676 7.17773-13.3789L2.59766-1.16211Q2.49023-0.859375 2.49023-0.634766Q2.49023-0.263672 2.70996-0.0537109Q2.92969 0.15625 3.31055 0.15625ZM6.00586-5.51758L8.37891-12.0898L8.42773-12.0898L10.8008-5.51758Z"/>
  </g>
  <line style="fill:none;stroke:#00AEEF;stroke-width:0.5;opacity:1.0;" x1="793.197" x2="793.197" y1="1919" y2="1933"/>
  <text style="stroke:none;fill:black;font-family:sans-serif;font-size:13;font-weight:bold;" transform="matrix(1 0 0 1 776 1953)">Margins</text>
  <text style="stroke:none;fill:black;font-family:sans-serif;font-size:13;" transform="matrix(1 0 0 1 776 1971)">Leading and trailing margins on the left and right side of each symbol</text>
  <text style="stroke:none;fill:black;font-family:sans-serif;font-size:13;" transform="matrix(1 0 0 1 776 1989)">can be adjusted by modifying the x-location of the margin guidelines.</text>
  <text style="stroke:none;fill:black;font-family:sans-serif;font-size:13;" transform="matrix(1 0 0 1 776 2007)">Modifications are automatically applied proportionally to all</text>
  <text style="stroke:none;fill:black;font-family:sans-serif;font-size:13;" transform="matrix(1 0 0 1 776 2025)">scales and weights.</text>
  <g transform="matrix(1 0 0 1 1289 1933)">
   <path d="M2.8418 1.86523L4.54102 3.57422Q5.18555 4.22852 5.90332 4.17969Q6.62109 4.13086 7.31445 3.35938L18.0078-8.42773L17.041-9.4043L6.42578 2.27539Q6.16211 2.57812 5.89355 2.61719Q5.625 2.65625 5.27344 2.30469L4.10156 1.14258Q3.75 0.791016 3.79395 0.522461Q3.83789 0.253906 4.14062-0.0195312L15.6152-10.8203L14.6387-11.7871L3.04688-0.898438Q2.30469-0.214844 2.25098 0.498047Q2.19727 1.21094 2.8418 1.86523ZM9.25781-16.3281Q8.94531-16.0254 8.90625-15.6348Q8.86719-15.2441 9.04297-14.9512Q9.21875-14.6777 9.55566-14.541Q9.89258-14.4043 10.3809-14.5215Q11.4746-14.7754 12.5977-14.7314Q13.7207-14.6875 14.7949-13.9844L14.209-12.5293Q13.9551-11.9043 14.0674-11.4404Q14.1797-10.9766 14.5801-10.5664L16.875-8.25195Q17.2363-7.88086 17.5781-7.82227Q17.9199-7.76367 18.3398-7.8418L19.4043-8.03711L20.0684-7.36328L20.0293-6.80664Q20-6.43555 20.1221-6.12305Q20.2441-5.81055 20.6055-5.44922L21.3672-4.70703Q21.7285-4.3457 22.1533-4.33105Q22.5781-4.31641 22.9297-4.66797L25.8398-7.58789Q26.1914-7.93945 26.1816-8.35449Q26.1719-8.76953 25.8105-9.13086L25.0391-9.89258Q24.6875-10.2539 24.3799-10.3857Q24.0723-10.5176 23.7109-10.4883L23.1348-10.4395L22.4902-11.0742L22.7344-12.1973Q22.832-12.6172 22.6953-12.9834Q22.5586-13.3496 22.1191-13.7891L19.9219-15.9766Q18.6719-17.2168 17.2607-17.8369Q15.8496-18.457 14.4189-18.4814Q12.9883-18.5059 11.665-17.959Q10.3418-17.4121 9.25781-16.3281ZM10.752-15.957Q11.6602-16.6211 12.7002-16.9043Q13.7402-17.1875 14.8047-17.085Q15.8691-16.9824 16.8701-16.5137Q17.8711-16.0449 18.7012-15.2051L21.1328-12.793Q21.3086-12.6172 21.3525-12.4512Q21.3965-12.2852 21.3379-12.0312L21.0156-10.5469L22.5195-9.0625L23.5059-9.12109Q23.6914-9.13086 23.7891-9.09668Q23.8867-9.0625 24.0332-8.91602L24.6094-8.33984L22.168-5.89844L21.5918-6.47461Q21.4453-6.62109 21.4062-6.71875Q21.3672-6.81641 21.377-7.01172L21.4453-7.98828L19.9512-9.47266L18.4277-9.21875Q18.1836-9.16992 18.042-9.2041Q17.9004-9.23828 17.7148-9.41406L15.7129-11.416Q15.5176-11.5918 15.4932-11.7529Q15.4688-11.9141 15.5859-12.1875L16.4648-14.2773Q15.293-15.3711 13.8281-15.791Q12.3633-16.2109 10.8398-15.7617Q10.7227-15.7324 10.6885-15.8057Q10.6543-15.8789 10.752-15.957Z"/>
  </g>
  <text style="stroke:none;fill:black;font-family:sans-serif;font-size:13;font-weight:bold;" transform="matrix(1 0 0 1 1289 1953)">Exporting</text>
  <text style="stroke:none;fill:black;font-family:sans-serif;font-size:13;" transform="matrix(1 0 0 1 1289 1971)">Symbols should be outlined when exporting to ensure the</text>
  <text style="stroke:none;fill:black;font-family:sans-serif;font-size:13;" transform="matrix(1 0 0 1 1289 1989)">design is preserved when submitting to Xcode.</text>
  <text id="template-version" style="stroke:none;fill:black;font-family:sans-serif;font-size:13;text-anchor:end;" transform="matrix(1 0 0 1 3036 1933)">Template v.2.0</text>
  <text style="stroke:none;fill:black;font-family:sans-serif;font-size:13;text-anchor:end;" transform="matrix(1 0 0 1 3036 1951)">Requires Xcode 13 or greater</text>
  <text id="descriptive-name" style="stroke:none;fill:black;font-family:sans-serif;font-size:13;text-anchor:end;" transform="matrix(1 0 0 1 3036 1969)">Generated from ellipsis</text>
  <text style="stroke:none;fill:black;font-family:sans-serif;font-size:13;text-anchor:end;" transform="matrix(1 0 0 1 3036 1987)">Typeset at 100 points</text>
  <text style="stroke:none;fill:black;font-family:sans-serif;font-size:13;" transform="matrix(1 0 0 1 263 726)">Small</text>
  <text style="stroke:none;fill:black;font-family:sans-serif;font-size:13;" transform="matrix(1 0 0 1 263 1156)">Medium</text>
  <text style="stroke:none;fill:black;font-family:sans-serif;font-size:13;" transform="matrix(1 0 0 1 263 1586)">Large</text>
 </g>
 <g id="Guides">
  <g id="H-reference" style="fill:#27AAE1;stroke:none;" transform="matrix(1 0 0 1 339 696)">
   <path d="M0.976562 0L3.66211 0L29.3457-67.1387L30.0293-67.1387L30.0293-70.459L28.125-70.459ZM11.6699-24.4629L46.9727-24.4629L46.2402-26.709L12.4512-26.709ZM55.127 0L57.7637 0L30.6152-70.459L29.4434-70.459L29.4434-67.1387Z"/>
  </g>
  <line id="Baseline-S" style="fill:none;stroke:#27AAE1;opacity:1;stroke-width:0.5;" x1="263" x2="3036" y1="696" y2="696"/>
  <line id="Capline-S" style="fill:none;stroke:#27AAE1;opacity:1;stroke-width:0.5;" x1="263" x2="3036" y1="625.541" y2="625.541"/>
  <g id="H-reference" style="fill:#27AAE1;stroke:none;" transform="matrix(1 0 0 1 339 1126)">
   <path d="M0.976562 0L3.66211 0L29.3457-67.1387L30.0293-67.1387L30.0293-70.459L28.125-70.459ZM11.6699-24.4629L46.9727-24.4629L46.2402-26.709L12.4512-26.709ZM55.127 0L57.7637 0L30.6152-70.459L29.4434-70.459L29.4434-67.1387Z"/>
  </g>
  <line id="Baseline-M" style="fill:none;stroke:#27AAE1;opacity:1;stroke-width:0.5;" x1="263" x2="3036" y1="1126" y2="1126"/>
  <line id="Capline-M" style="fill:none;stroke:#27AAE1;opacity:1;stroke-width:0.5;" x1="263" x2="3036" y1="1055.54" y2="1055.54"/>
  <g id="H-reference" style="fill:#27AAE1;stroke:none;" transform="matrix(1 0 0 1 339 1556)">
   <path d="M0.976562 0L3.66211 0L29.3457-67.1387L30.0293-67.1387L30.0293-70.459L28.125-70.459ZM11.6699-24.4629L46.9727-24.4629L46.2402-26.709L12.4512-26.709ZM55.127 0L57.7637 0L30.6152-70.459L29.4434-70.459L29.4434-67.1387Z"/>
  </g>
  <line id="Baseline-L" style="fill:none;stroke:#27AAE1;opacity:1;stroke-width:0.5;" x1="263" x2="3036" y1="1556" y2="1556"/>
  <line id="Capline-L" style="fill:none;stroke:#27AAE1;opacity:1;stroke-width:0.5;" x1="263" x2="3036" y1="1485.54" y2="1485.54"/>
  <line id="left-margin" style="fill:none;stroke:#00AEEF;stroke-width:0.5;opacity:1.0;" x1="1395.06" x2="1395.06" y1="1030.79" y2="1150.12"/>
  <line id="right-margin" style="fill:none;stroke:#00AEEF;stroke-width:0.5;opacity:1.0;" x1="1504.63" x2="1504.63" y1="1030.79" y2="1150.12"/>
 </g>
 <g id="Symbols">
  <g id="Black-L" transform="matrix(1 0 0 1 2857.86 1556)">
   <path d="M43.1152-35.2051Q43.1152-39.7461 41.04-43.335Q38.9648-46.9238 35.376-48.999Q31.7871-51.0742 27.1973-51.0742Q22.8516-51.0742 19.2383-48.9502Q15.625-46.8262 13.4521-43.2129Q11.2793-39.5996 11.2793-35.2051Q11.2793-31.0059 13.4521-27.3682Q15.625-23.7305 19.2383-21.5088Q22.8516-19.2871 27.1973-19.2871Q31.4453-19.2871 35.083-21.5088Q38.7207-23.7305 40.918-27.3682Q43.1152-31.0059 43.1152-35.2051ZM91.4062-35.2051Q91.4062-39.7461 89.3311-43.335Q87.2559-46.9238 83.667-48.999Q80.0781-51.0742 75.5371-51.0742Q71.1914-51.0742 67.5781-48.9502Q63.9648-46.8262 61.8164-43.2129Q59.668-39.5996 59.668-35.2051Q59.668-31.0059 61.8164-27.3682Q63.9648-23.7305 67.5781-21.5088Q71.1914-19.2871 75.5371-19.2871Q79.7852-19.2871 83.3984-21.5088Q87.0117-23.7305 89.209-27.3682Q91.4062-31.0059 91.4062-35.2051ZM139.795-35.2051Q139.795-39.7461 137.72-43.335Q135.645-46.9238 132.056-48.999Q128.467-51.0742 123.877-51.0742Q119.531-51.0742 115.894-48.9502Q112.256-46.8262 110.107-43.2129Q107.959-39.5996 107.959-35.2051Q107.959-31.0059 110.107-27.3682Q112.256-23.7305 115.894-21.5088Q119.531-19.2871 123.877-19.2871Q128.125-19.2871 131.738-21.5088Q135.352-23.7305 137.573-27.3682Q139.795-31.0059 139.795-35.2051Z"/>
  </g>
  <g id="Heavy-L" transform="matrix(1 0 0 1 2562.74 1556)">
   <path d="M41.2598-35.2051Q41.2598-39.4531 39.2822-42.8223Q37.3047-46.1914 33.9355-48.1689Q30.5664-50.1465 26.2695-50.1465Q22.168-50.1465 18.7744-48.1445Q15.3809-46.1426 13.3301-42.749Q11.2793-39.3555 11.2793-35.2051Q11.2793-31.2012 13.3301-27.7832Q15.3809-24.3652 18.7744-22.29Q22.168-20.2148 26.2695-20.2148Q30.2734-20.2148 33.6914-22.29Q37.1094-24.3652 39.1846-27.7832Q41.2598-31.2012 41.2598-35.2051ZM88.8672-35.2051Q88.8672-39.4531 86.9141-42.8223Q84.9609-46.1914 81.5674-48.1689Q78.1738-50.1465 73.9258-50.1465Q69.8242-50.1465 66.4307-48.1445Q63.0371-46.1426 61.0352-42.749Q59.0332-39.3555 59.0332-35.2051Q59.0332-31.2012 61.0352-27.7832Q63.0371-24.3652 66.4307-22.29Q69.8242-20.2148 73.9258-20.2148Q77.9785-20.2148 81.3721-22.29Q84.7656-24.3652 86.8164-27.7832Q88.8672-31.2012 88.8672-35.2051ZM136.621-35.2051Q136.621-39.4531 134.644-42.8223Q132.666-46.1914 129.297-48.1689Q125.928-50.1465 121.631-50.1465Q117.529-50.1465 114.087-48.1445Q110.645-46.1426 108.643-42.749Q106.641-39.3555 106.641-35.2051Q106.641-31.2012 108.643-27.7832Q110.645-24.3652 114.087-22.29Q117.529-20.2148 121.631-20.2148Q125.635-20.2148 129.053-22.29Q132.471-24.3652 134.546-27.7832Q136.621-31.2012 136.621-35.2051Z"/>
  </g>
  <g id="Bold-L" transform="matrix(1 0 0 1 2267.81 1556)">
   <path d="M39.209-35.2051Q39.209-39.1113 37.3535-42.2607Q35.498-45.4102 32.3486-47.2412Q29.1992-49.0723 25.1953-49.0723Q21.3867-49.0723 18.2373-47.2168Q15.0879-45.3613 13.1836-42.2119Q11.2793-39.0625 11.2793-35.2051Q11.2793-31.4453 13.1836-28.2715Q15.0879-25.0977 18.2373-23.1934Q21.3867-21.2891 25.1953-21.2891Q29.0039-21.2891 32.1777-23.1934Q35.3516-25.0977 37.2803-28.2715Q39.209-31.4453 39.209-35.2051ZM86.0352-35.2051Q86.0352-39.1113 84.2041-42.2607Q82.373-45.4102 79.2236-47.2412Q76.0742-49.0723 72.168-49.0723Q68.3594-49.0723 65.21-47.2168Q62.0605-45.3613 60.1807-42.2119Q58.3008-39.0625 58.3008-35.2051Q58.3008-31.4453 60.1807-28.2715Q62.0605-25.0977 65.21-23.1934Q68.3594-21.2891 72.168-21.2891Q75.9277-21.2891 79.0771-23.1934Q82.2266-25.0977 84.1309-28.2715Q86.0352-31.4453 86.0352-35.2051ZM133.057-35.2051Q133.057-39.1113 131.201-42.2607Q129.346-45.4102 126.196-47.2412Q123.047-49.0723 119.092-49.0723Q115.283-49.0723 112.085-47.2168Q108.887-45.3613 107.007-42.2119Q105.127-39.0625 105.127-35.2051Q105.127-31.4453 107.007-28.2715Q108.887-25.0977 112.085-23.1934Q115.283-21.2891 119.092-21.2891Q122.9-21.2891 126.05-23.1934Q129.199-25.0977 131.128-28.2715Q133.057-31.4453 133.057-35.2051Z"/>
  </g>
  <g id="Semibold-L" transform="matrix(1 0 0 1 1972.34 1556)">
   <path d="M37.7441-35.1562Q37.7441-38.8672 35.9619-41.8701Q34.1797-44.873 31.2012-46.6064Q28.2227-48.3398 24.4629-48.3398Q20.8496-48.3398 17.8467-46.582Q14.8438-44.8242 13.0615-41.8213Q11.2793-38.8184 11.2793-35.1562Q11.2793-31.5918 13.0615-28.5889Q14.8438-25.5859 17.8467-23.8037Q20.8496-22.0215 24.4629-22.0215Q28.125-22.0215 31.1279-23.8037Q34.1309-25.5859 35.9375-28.5889Q37.7441-31.5918 37.7441-35.1562ZM84.082-35.1562Q84.082-38.8672 82.3242-41.8701Q80.5664-44.873 77.5879-46.6064Q74.6094-48.3398 70.8984-48.3398Q67.2852-48.3398 64.3066-46.582Q61.3281-44.8242 59.5459-41.8213Q57.7637-38.8184 57.7637-35.1562Q57.7637-31.5918 59.5459-28.5889Q61.3281-25.5859 64.3066-23.8037Q67.2852-22.0215 70.8984-22.0215Q74.5117-22.0215 77.4902-23.8037Q80.4688-25.5859 82.2754-28.5889Q84.082-31.5918 84.082-35.1562ZM130.566-35.1562Q130.566-38.8672 128.809-41.8701Q127.051-44.873 124.072-46.6064Q121.094-48.3398 117.334-48.3398Q113.721-48.3398 110.693-46.582Q107.666-44.8242 105.884-41.8213Q104.102-38.8184 104.102-35.1562Q104.102-31.5918 105.884-28.5889Q107.666-25.5859 110.693-23.8037Q113.721-22.0215 117.334-22.0215Q120.947-22.0215 123.95-23.8037Q126.953-25.5859 128.76-28.5889Q130.566-31.5918 130.566-35.1562Z"/>
  </g>
  <g id="Medium-L" transform="matrix(1 0 0 1 1676.56 1556)">
   <path d="M36.6699-35.1562Q36.6699-38.7207 34.9609-41.5771Q33.252-44.4336 30.3711-46.1182Q27.4902-47.8027 23.9258-47.8027Q20.459-47.8027 17.5781-46.1182Q14.6973-44.4336 12.9883-41.5527Q11.2793-38.6719 11.2793-35.1562Q11.2793-31.6895 12.9883-28.833Q14.6973-25.9766 17.5781-24.2676Q20.459-22.5586 23.9258-22.5586Q27.4414-22.5586 30.3223-24.2676Q33.2031-25.9766 34.9365-28.833Q36.6699-31.6895 36.6699-35.1562ZM82.6172-35.1562Q82.6172-38.7207 80.9082-41.5771Q79.1992-44.4336 76.3672-46.1182Q73.5352-47.8027 69.9707-47.8027Q66.5039-47.8027 63.6475-46.1182Q60.791-44.4336 59.082-41.5527Q57.373-38.6719 57.373-35.1562Q57.373-31.6895 59.082-28.833Q60.791-25.9766 63.6475-24.2676Q66.5039-22.5586 69.9707-22.5586Q73.4375-22.5586 76.2939-24.2676Q79.1504-25.9766 80.8838-28.833Q82.6172-31.6895 82.6172-35.1562ZM128.711-35.1562Q128.711-38.7207 127.002-41.5771Q125.293-44.4336 122.437-46.1182Q119.58-47.8027 116.016-47.8027Q112.5-47.8027 109.619-46.1182Q106.738-44.4336 105.029-41.5527Q103.32-38.6719 103.32-35.1562Q103.32-31.6895 105.029-28.833Q106.738-25.9766 109.619-24.2676Q112.5-22.5586 116.016-22.5586Q119.531-22.5586 122.388-24.2676Q125.244-25.9766 126.978-28.833Q128.711-31.6895 128.711-35.1562Z"/>
  </g>
  <g id="Regular-L" transform="matrix(1 0 0 1 1381.07 1556)">
   <path d="M35.2539-35.1562Q35.2539-38.4766 33.6182-41.1865Q31.9824-43.8965 29.2725-45.4834Q26.5625-47.0703 23.1934-47.0703Q19.9219-47.0703 17.2119-45.4834Q14.502-43.8965 12.8906-41.1865Q11.2793-38.4766 11.2793-35.1562Q11.2793-31.8359 12.8906-29.1504Q14.502-26.4648 17.2119-24.8779Q19.9219-23.291 23.1934-23.291Q26.5625-23.291 29.2725-24.8779Q31.9824-26.4648 33.6182-29.1504Q35.2539-31.8359 35.2539-35.1562ZM80.6641-35.1562Q80.6641-38.4766 79.0527-41.1865Q77.4414-43.8965 74.7559-45.4834Q72.0703-47.0703 68.75-47.0703Q65.4785-47.0703 62.793-45.4834Q60.1074-43.8965 58.4961-41.1865Q56.8848-38.4766 56.8848-35.1562Q56.8848-31.8359 58.4961-29.1504Q60.1074-26.4648 62.793-24.8779Q65.4785-23.291 68.75-23.291Q72.0703-23.291 74.7559-24.8779Q77.4414-26.4648 79.0527-29.1504Q80.6641-31.8359 80.6641-35.1562ZM126.27-35.1562Q126.27-38.4766 124.658-41.1865Q123.047-43.8965 120.337-45.4834Q117.627-47.0703 114.307-47.0703Q110.986-47.0703 108.252-45.4834Q105.518-43.8965 103.906-41.1865Q102.295-38.4766 102.295-35.1562Q102.295-31.8359 103.906-29.1504Q105.518-26.4648 108.252-24.8779Q110.986-23.291 114.307-23.291Q117.627-23.291 120.337-24.8779Q123.047-26.4648 124.658-29.1504Q126.27-31.8359 126.27-35.1562Z"/>
  </g>
  <g id="Light-L" transform="matrix(1 0 0 1 1087 1556)">
   <path d="M33.3496-35.1562Q33.3496-38.1836 31.8359-40.6738Q30.3223-43.1641 27.832-44.6289Q25.3418-46.0938 22.2656-46.0938Q19.2383-46.0938 16.748-44.6289Q14.2578-43.1641 12.7686-40.6738Q11.2793-38.1836 11.2793-35.1562Q11.2793-32.0801 12.7686-29.6143Q14.2578-27.1484 16.748-25.6836Q19.2383-24.2188 22.2656-24.2188Q25.3418-24.2188 27.832-25.6836Q30.3223-27.1484 31.8359-29.6143Q33.3496-32.0801 33.3496-35.1562ZM77.0996-35.1562Q77.0996-38.1836 75.6104-40.6738Q74.1211-43.1641 71.6309-44.6289Q69.1406-46.0938 66.1133-46.0938Q63.0859-46.0938 60.6201-44.6289Q58.1543-43.1641 56.665-40.6738Q55.1758-38.1836 55.1758-35.1562Q55.1758-32.0801 56.665-29.6143Q58.1543-27.1484 60.6201-25.6836Q63.0859-24.2188 66.1133-24.2188Q69.1406-24.2188 71.6309-25.6836Q74.1211-27.1484 75.6104-29.6143Q77.0996-32.0801 77.0996-35.1562ZM120.996-35.1562Q120.996-38.1836 119.507-40.6738Q118.018-43.1641 115.503-44.6289Q112.988-46.0938 109.961-46.0938Q106.934-46.0938 104.419-44.6289Q101.904-43.1641 100.415-40.6738Q98.9258-38.1836 98.9258-35.1562Q98.9258-32.0801 100.415-29.6143Q101.904-27.1484 104.419-25.6836Q106.934-24.2188 109.961-24.2188Q112.988-24.2188 115.503-25.6836Q118.018-27.1484 119.507-29.6143Q120.996-32.0801 120.996-35.1562Z"/>
  </g>
  <g id="Thin-L" transform="matrix(1 0 0 1 793.8 1556)">
   <path d="M30.8105-35.1074Q30.8105-37.793 29.4678-40.0146Q28.125-42.2363 25.9033-43.5547Q23.6816-44.873 20.9961-44.873Q18.3594-44.873 16.1377-43.5547Q13.916-42.2363 12.5977-40.0146Q11.2793-37.793 11.2793-35.1074Q11.2793-32.4219 12.5977-30.2246Q13.916-28.0273 16.1377-26.709Q18.3594-25.3906 20.9961-25.3906Q23.6816-25.3906 25.9033-26.709Q28.125-28.0273 29.4678-30.2246Q30.8105-32.4219 30.8105-35.1074ZM72.3633-35.1074Q72.3633-37.793 71.0449-40.0146Q69.7266-42.2363 67.5049-43.5547Q65.2832-44.873 62.6465-44.873Q59.9609-44.873 57.7393-43.5547Q55.5176-42.2363 54.2236-40.0146Q52.9297-37.793 52.9297-35.1074Q52.9297-32.4219 54.2236-30.2246Q55.5176-28.0273 57.7393-26.709Q59.9609-25.3906 62.6465-25.3906Q65.2832-25.3906 67.5049-26.709Q69.7266-28.0273 71.0449-30.2246Q72.3633-32.4219 72.3633-35.1074ZM113.965-35.1074Q113.965-37.793 112.646-40.0146Q111.328-42.2363 109.106-43.5547Q106.885-44.873 104.199-44.873Q101.562-44.873 99.3408-43.5547Q97.1191-42.2363 95.8008-40.0146Q94.4824-37.793 94.4824-35.1074Q94.4824-32.4219 95.8008-30.2246Q97.1191-28.0273 99.3408-26.709Q101.562-25.3906 104.199-25.3906Q106.885-25.3906 109.106-26.709Q111.328-28.0273 112.646-30.2246Q113.965-32.4219 113.965-35.1074Z"/>
  </g>
  <g id="Ultralight-L" transform="matrix(1 0 0 1 498.871 1556)">
   <path d="M29.4922-35.1074Q29.4922-37.5977 28.2471-39.6729Q27.002-41.748 24.9268-42.9688Q22.8516-44.1895 20.3613-44.1895Q17.8711-44.1895 15.8203-42.9688Q13.7695-41.748 12.5244-39.6729Q11.2793-37.5977 11.2793-35.1074Q11.2793-32.5684 12.5244-30.5176Q13.7695-28.4668 15.8203-27.2461Q17.8711-26.0254 20.3613-26.0254Q22.8516-26.0254 24.9268-27.2461Q27.002-28.4668 28.2471-30.5176Q29.4922-32.5684 29.4922-35.1074ZM69.9707-35.1074Q69.9707-37.5977 68.7012-39.6729Q67.4316-41.748 65.3809-42.9688Q63.3301-44.1895 60.8398-44.1895Q58.3496-44.1895 56.2744-42.9688Q54.1992-41.748 52.9785-39.6729Q51.7578-37.5977 51.7578-35.1074Q51.7578-32.5684 52.9785-30.5176Q54.1992-28.4668 56.2744-27.2461Q58.3496-26.0254 60.8398-26.0254Q63.3301-26.0254 65.3809-27.2461Q67.4316-28.4668 68.7012-30.5176Q69.9707-32.5684 69.9707-35.1074ZM110.4-35.1074Q110.4-37.5977 109.155-39.6729Q107.91-41.748 105.835-42.9688Q103.76-44.1895 101.27-44.1895Q98.8281-44.1895 96.7529-42.9688Q94.6777-41.748 93.457-39.6729Q92.2363-37.5977 92.2363-35.1074Q92.2363-32.5684 93.457-30.5176Q94.6777-28.4668 96.7529-27.2461Q98.8281-26.0254 101.27-26.0254Q103.76-26.0254 105.835-27.2461Q107.91-28.4668 109.155-30.5176Q110.4-32.5684 110.4-35.1074Z"/>
  </g>
  <g id="Black-M" transform="matrix(1 0 0 1 2874.39 1126)">
   <path d="M34.375-35.2051Q34.375-40.7227 30.7373-44.3604Q27.0996-47.998 21.5332-47.998Q18.0664-47.998 15.1367-46.2891Q12.207-44.5801 10.4736-41.6748Q8.74023-38.7695 8.74023-35.2051Q8.74023-31.8359 10.4736-28.9062Q12.207-25.9766 15.1367-24.1943Q18.0664-22.4121 21.5332-22.4121Q24.9512-22.4121 27.8564-24.1943Q30.7617-25.9766 32.5684-28.9062Q34.375-31.8359 34.375-35.2051ZM71.8262-35.2051Q71.8262-40.7227 68.1885-44.3604Q64.5508-47.998 59.0332-47.998Q55.5176-47.998 52.6123-46.2891Q49.707-44.5801 47.9492-41.6748Q46.1914-38.7695 46.1914-35.2051Q46.1914-31.8359 47.9492-28.9062Q49.707-25.9766 52.6123-24.1943Q55.5176-22.4121 59.0332-22.4121Q62.4023-22.4121 65.3076-24.1943Q68.2129-25.9766 70.0195-28.9062Q71.8262-31.8359 71.8262-35.2051ZM109.277-35.2051Q109.277-40.7227 105.64-44.3604Q102.002-47.998 96.4844-47.998Q92.9688-47.998 90.0635-46.2891Q87.1582-44.5801 85.4004-41.6748Q83.6426-38.7695 83.6426-35.2051Q83.6426-31.8359 85.4004-28.9062Q87.1582-25.9766 90.0635-24.1943Q92.9688-22.4121 96.4844-22.4121Q99.8535-22.4121 102.783-24.1943Q105.713-25.9766 107.495-28.9062Q109.277-31.8359 109.277-35.2051Z"/>
  </g>
  <g id="Heavy-M" transform="matrix(1 0 0 1 2578.68 1126)">
   <path d="M32.959-35.2051Q32.959-40.3809 29.5166-43.8232Q26.0742-47.2656 20.8008-47.2656Q17.5293-47.2656 14.7705-45.6543Q12.0117-44.043 10.376-41.3086Q8.74023-38.5742 8.74023-35.2051Q8.74023-31.9824 10.376-29.2236Q12.0117-26.4648 14.7705-24.8047Q17.5293-23.1445 20.8008-23.1445Q24.0723-23.1445 26.8311-24.8047Q29.5898-26.4648 31.2744-29.2236Q32.959-31.9824 32.959-35.2051ZM70.1172-35.2051Q70.1172-40.3809 66.6504-43.8232Q63.1836-47.2656 58.0078-47.2656Q54.6875-47.2656 51.9531-45.6543Q49.2188-44.043 47.583-41.3086Q45.9473-38.5742 45.9473-35.2051Q45.9473-31.9824 47.583-29.2236Q49.2188-26.4648 51.9531-24.8047Q54.6875-23.1445 58.0078-23.1445Q61.2305-23.1445 63.9893-24.8047Q66.748-26.4648 68.4326-29.2236Q70.1172-31.9824 70.1172-35.2051ZM107.275-35.2051Q107.275-40.3809 103.833-43.8232Q100.391-47.2656 95.2148-47.2656Q91.8945-47.2656 89.1357-45.6543Q86.377-44.043 84.7168-41.3086Q83.0566-38.5742 83.0566-35.2051Q83.0566-31.9824 84.7168-29.2236Q86.377-26.4648 89.1357-24.8047Q91.8945-23.1445 95.2148-23.1445Q98.3887-23.1445 101.172-24.8047Q103.955-26.4648 105.615-29.2236Q107.275-31.9824 107.275-35.2051Z"/>
  </g>
  <g id="Bold-M" transform="matrix(1 0 0 1 2283.07 1126)">
   <path d="M31.3965-35.2051Q31.3965-39.9902 28.1494-43.2373Q24.9023-46.4844 20.0195-46.4844Q16.9434-46.4844 14.3799-44.9707Q11.8164-43.457 10.2783-40.8936Q8.74023-38.3301 8.74023-35.2051Q8.74023-32.1777 10.2783-29.6143Q11.8164-27.0508 14.3799-25.4883Q16.9434-23.9258 20.0195-23.9258Q23.1445-23.9258 25.708-25.4883Q28.2715-27.0508 29.834-29.6143Q31.3965-32.1777 31.3965-35.2051ZM68.2129-35.2051Q68.2129-39.9902 64.9658-43.2373Q61.7188-46.4844 56.9336-46.4844Q53.8086-46.4844 51.2451-44.9707Q48.6816-43.457 47.168-40.8936Q45.6543-38.3301 45.6543-35.2051Q45.6543-32.1777 47.168-29.6143Q48.6816-27.0508 51.2451-25.4883Q53.8086-23.9258 56.9336-23.9258Q59.9609-23.9258 62.5244-25.4883Q65.0879-27.0508 66.6504-29.6143Q68.2129-32.1777 68.2129-35.2051ZM105.078-35.2051Q105.078-39.9902 101.831-43.2373Q98.584-46.4844 93.7988-46.4844Q90.6738-46.4844 88.0859-44.9707Q85.498-43.457 83.96-40.8936Q82.4219-38.3301 82.4219-35.2051Q82.4219-32.1777 83.96-29.6143Q85.498-27.0508 88.0859-25.4883Q90.6738-23.9258 93.7988-23.9258Q96.8262-23.9258 99.3896-25.4883Q101.953-27.0508 103.516-29.6143Q105.078-32.1777 105.078-35.2051Z"/>
  </g>
  <g id="Semibold-M" transform="matrix(1 0 0 1 1987.14 1126)">
   <path d="M30.3223-35.2051Q30.3223-39.7461 27.1973-42.8467Q24.0723-45.9473 19.4824-45.9473Q16.5527-45.9473 14.0869-44.5068Q11.6211-43.0664 10.1807-40.625Q8.74023-38.1836 8.74023-35.2051Q8.74023-32.2754 10.1807-29.834Q11.6211-27.3926 14.0869-25.9277Q16.5527-24.4629 19.4824-24.4629Q22.4609-24.4629 24.9023-25.9277Q27.3438-27.3926 28.833-29.834Q30.3223-32.2754 30.3223-35.2051ZM66.8457-35.2051Q66.8457-39.7461 63.7451-42.8467Q60.6445-45.9473 56.1523-45.9473Q53.1738-45.9473 50.7324-44.5068Q48.291-43.0664 46.8506-40.625Q45.4102-38.1836 45.4102-35.2051Q45.4102-32.2754 46.8506-29.834Q48.291-27.3926 50.7324-25.9277Q53.1738-24.4629 56.1523-24.4629Q59.082-24.4629 61.499-25.9277Q63.916-27.3926 65.3809-29.834Q66.8457-32.2754 66.8457-35.2051ZM103.516-35.2051Q103.516-39.7461 100.415-42.8467Q97.3145-45.9473 92.7734-45.9473Q89.7949-45.9473 87.3535-44.5068Q84.9121-43.0664 83.4473-40.625Q81.9824-38.1836 81.9824-35.2051Q81.9824-32.2754 83.4473-29.834Q84.9121-27.3926 87.3535-25.9277Q89.7949-24.4629 92.7734-24.4629Q95.7031-24.4629 98.1445-25.9277Q100.586-27.3926 102.051-29.834Q103.516-32.2754 103.516-35.2051Z"/>
  </g>
  <g id="Medium-M" transform="matrix(1 0 0 1 1691.01 1126)">
   <path d="M29.4922-35.2051Q29.4922-39.502 26.4648-42.5049Q23.4375-45.5078 19.043-45.5078Q16.2109-45.5078 13.8672-44.1162Q11.5234-42.7246 10.1318-40.3809Q8.74023-38.0371 8.74023-35.2051Q8.74023-32.373 10.1318-30.0293Q11.5234-27.6855 13.8672-26.2939Q16.2109-24.9023 19.043-24.9023Q21.9238-24.9023 24.292-26.2939Q26.6602-27.6855 28.0762-30.0293Q29.4922-32.373 29.4922-35.2051ZM65.8691-35.2051Q65.8691-39.502 62.8662-42.5049Q59.8633-45.5078 55.5664-45.5078Q52.7344-45.5078 50.3906-44.1162Q48.0469-42.7246 46.6553-40.3809Q45.2637-38.0371 45.2637-35.2051Q45.2637-32.373 46.6553-30.0293Q48.0469-27.6855 50.3906-26.2939Q52.7344-24.9023 55.5664-24.9023Q58.3984-24.9023 60.7178-26.2939Q63.0371-27.6855 64.4531-30.0293Q65.8691-32.373 65.8691-35.2051ZM102.344-35.2051Q102.344-39.502 99.3408-42.5049Q96.3379-45.5078 92.041-45.5078Q89.1602-45.5078 86.792-44.1162Q84.4238-42.7246 83.0322-40.3809Q81.6406-38.0371 81.6406-35.2051Q81.6406-32.373 83.0322-30.0293Q84.4238-27.6855 86.792-26.2939Q89.1602-24.9023 92.041-24.9023Q94.8242-24.9023 97.1924-26.2939Q99.5605-27.6855 100.952-30.0293Q102.344-32.373 102.344-35.2051Z"/>
  </g>
  <g id="Regular-M" transform="matrix(1 0 0 1 1395.06 1126)">
   <path d="M28.418-35.2051Q28.418-39.2578 25.5371-42.1143Q22.6562-44.9707 18.5059-44.9707Q15.8203-44.9707 13.5986-43.6523Q11.377-42.334 10.0586-40.1123Q8.74023-37.8906 8.74023-35.2051Q8.74023-32.4707 10.0586-30.2734Q11.377-28.0762 13.5986-26.7578Q15.8203-25.4395 18.5059-25.4395Q21.2891-25.4395 23.5107-26.7578Q25.7324-28.0762 27.0752-30.2734Q28.418-32.4707 28.418-35.2051ZM64.5508-35.2051Q64.5508-39.2578 61.6943-42.1143Q58.8379-44.9707 54.7852-44.9707Q52.0996-44.9707 49.8779-43.6523Q47.6562-42.334 46.3623-40.1123Q45.0684-37.8906 45.0684-35.2051Q45.0684-32.4707 46.3623-30.2734Q47.6562-28.0762 49.8779-26.7578Q52.0996-25.4395 54.7852-25.4395Q57.5195-25.4395 59.7168-26.7578Q61.9141-28.0762 63.2324-30.2734Q64.5508-32.4707 64.5508-35.2051ZM100.83-35.2051Q100.83-39.2578 97.9736-42.1143Q95.1172-44.9707 91.0645-44.9707Q88.3301-44.9707 86.084-43.6523Q83.8379-42.334 82.5195-40.1123Q81.2012-37.8906 81.2012-35.2051Q81.2012-32.4707 82.5195-30.2734Q83.8379-28.0762 86.084-26.7578Q88.3301-25.4395 91.0645-25.4395Q93.75-25.4395 95.9717-26.7578Q98.1934-28.0762 99.5117-30.2734Q100.83-32.4707 100.83-35.2051Z"/>
  </g>
  <g id="Light-M" transform="matrix(1 0 0 1 1100.72 1126)">
   <path d="M26.709-35.1562Q26.709-38.916 24.0723-41.5039Q21.4355-44.0918 17.6758-44.0918Q15.2344-44.0918 13.1836-42.8955Q11.1328-41.6992 9.93652-39.6729Q8.74023-37.6465 8.74023-35.1562Q8.74023-32.666 9.93652-30.6641Q11.1328-28.6621 13.1836-27.4658Q15.2344-26.2695 17.6758-26.2695Q20.166-26.2695 22.1924-27.4658Q24.2188-28.6621 25.4639-30.6641Q26.709-32.666 26.709-35.1562ZM61.3281-35.1562Q61.3281-38.916 58.7158-41.5039Q56.1035-44.0918 52.4414-44.0918Q49.9512-44.0918 47.9248-42.8955Q45.8984-41.6992 44.7021-39.6729Q43.5059-37.6465 43.5059-35.1562Q43.5059-32.666 44.7021-30.6641Q45.8984-28.6621 47.9248-27.4658Q49.9512-26.2695 52.4414-26.2695Q54.8828-26.2695 56.9092-27.4658Q58.9355-28.6621 60.1318-30.6641Q61.3281-32.666 61.3281-35.1562ZM96.0938-35.1562Q96.0938-38.916 93.4814-41.5039Q90.8691-44.0918 87.1582-44.0918Q84.668-44.0918 82.6416-42.8955Q80.6152-41.6992 79.3945-39.6729Q78.1738-37.6465 78.1738-35.1562Q78.1738-32.666 79.3945-30.6641Q80.6152-28.6621 82.6416-27.4658Q84.668-26.2695 87.1582-26.2695Q89.5996-26.2695 91.6504-27.4658Q93.7012-28.6621 94.8975-30.6641Q96.0938-32.666 96.0938-35.1562Z"/>
  </g>
  <g id="Thin-M" transform="matrix(1 0 0 1 807.13 1126)">
   <path d="M24.4141-35.1562Q24.4141-38.4277 22.1191-40.6982Q19.8242-42.9688 16.5527-42.9688Q14.4043-42.9688 12.6221-41.9189Q10.8398-40.8691 9.79004-39.0869Q8.74023-37.3047 8.74023-35.1562Q8.74023-32.959 9.79004-31.2012Q10.8398-29.4434 12.6221-28.3936Q14.4043-27.3438 16.5527-27.3438Q18.7012-27.3438 20.4834-28.3936Q22.2656-29.4434 23.3398-31.2012Q24.4141-32.959 24.4141-35.1562ZM57.0801-35.1562Q57.0801-38.4277 54.7852-40.6982Q52.4902-42.9688 49.3164-42.9688Q47.1191-42.9688 45.3369-41.9189Q43.5547-40.8691 42.5293-39.0869Q41.5039-37.3047 41.5039-35.1562Q41.5039-32.959 42.5293-31.2012Q43.5547-29.4434 45.3369-28.3936Q47.1191-27.3438 49.3164-27.3438Q51.416-27.3438 53.1982-28.3936Q54.9805-29.4434 56.0303-31.2012Q57.0801-32.959 57.0801-35.1562ZM89.8438-35.1562Q89.8438-38.4277 87.5488-40.6982Q85.2539-42.9688 82.0312-42.9688Q79.834-42.9688 78.0762-41.9189Q76.3184-40.8691 75.2686-39.0869Q74.2188-37.3047 74.2188-35.1562Q74.2188-32.959 75.2686-31.2012Q76.3184-29.4434 78.0762-28.3936Q79.834-27.3438 82.0312-27.3438Q84.1309-27.3438 85.9131-28.3936Q87.6953-29.4434 88.7695-31.2012Q89.8438-32.959 89.8438-35.1562Z"/>
  </g>
  <g id="Ultralight-M" transform="matrix(1 0 0 1 512.03 1126)">
   <path d="M23.2422-35.1074Q23.2422-38.1836 21.1182-40.2832Q18.9941-42.3828 15.9668-42.3828Q14.0137-42.3828 12.3535-41.4062Q10.6934-40.4297 9.7168-38.7939Q8.74023-37.1582 8.74023-35.1074Q8.74023-33.1055 9.7168-31.4697Q10.6934-29.834 12.3535-28.8574Q14.0137-27.8809 15.9668-27.8809Q17.9688-27.8809 19.6045-28.8574Q21.2402-29.834 22.2412-31.4697Q23.2422-33.1055 23.2422-35.1074ZM54.9316-35.1074Q54.9316-38.1836 52.8076-40.2832Q50.6836-42.3828 47.7051-42.3828Q45.7031-42.3828 44.043-41.4062Q42.3828-40.4297 41.4062-38.7939Q40.4297-37.1582 40.4297-35.1074Q40.4297-33.1055 41.4062-31.4697Q42.3828-29.834 44.043-28.8574Q45.7031-27.8809 47.7051-27.8809Q49.6582-27.8809 51.3184-28.8574Q52.9785-29.834 53.9551-31.4697Q54.9316-33.1055 54.9316-35.1074ZM86.6211-35.1074Q86.6211-38.1836 84.4971-40.2832Q82.373-42.3828 79.3945-42.3828Q77.3926-42.3828 75.7568-41.4062Q74.1211-40.4297 73.1445-38.7939Q72.168-37.1582 72.168-35.1074Q72.168-33.1055 73.1445-31.4697Q74.1211-29.834 75.7568-28.8574Q77.3926-27.8809 79.3945-27.8809Q81.3477-27.8809 83.0078-28.8574Q84.668-29.834 85.6445-31.4697Q86.6211-33.1055 86.6211-35.1074Z"/>
  </g>
  <g id="Black-S" transform="matrix(1 0 0 1 2887.01 696)">
   <path d="M27.2461-35.2051Q27.2461-39.6484 24.3652-42.5293Q21.4844-45.4102 17.041-45.4102Q12.8906-45.4102 9.86328-42.4316Q6.83594-39.4531 6.83594-35.2051Q6.83594-32.5684 8.22754-30.2246Q9.61914-27.8809 11.9385-26.4404Q14.2578-25 17.041-25Q19.7266-25 22.0459-26.4404Q24.3652-27.8809 25.8057-30.2246Q27.2461-32.5684 27.2461-35.2051ZM56.5918-35.2051Q56.5918-39.6484 53.7109-42.5293Q50.8301-45.4102 46.3867-45.4102Q42.2363-45.4102 39.209-42.4316Q36.1816-39.4531 36.1816-35.2051Q36.1816-32.5684 37.5732-30.2246Q38.9648-27.8809 41.2842-26.4404Q43.6035-25 46.3867-25Q49.0723-25 51.3916-26.4404Q53.7109-27.8809 55.1514-30.2246Q56.5918-32.5684 56.5918-35.2051ZM85.9375-35.2051Q85.9375-39.6484 83.0566-42.5293Q80.1758-45.4102 75.7324-45.4102Q71.582-45.4102 68.5547-42.4316Q65.5273-39.4531 65.5273-35.2051Q65.5273-32.5684 66.9189-30.2246Q68.3105-27.8809 70.6299-26.4404Q72.9492-25 75.7324-25Q78.418-25 80.7373-26.4404Q83.0566-27.8809 84.4971-30.2246Q85.9375-32.5684 85.9375-35.2051Z"/>
  </g>
  <g id="Heavy-S" transform="matrix(1 0 0 1 2590.84 696)">
   <path d="M26.2695-35.2051Q26.2695-39.4043 23.5107-42.1631Q20.752-44.9219 16.5527-44.9219Q12.5977-44.9219 9.7168-42.0898Q6.83594-39.2578 6.83594-35.2051Q6.83594-32.666 8.1543-30.4443Q9.47266-28.2227 11.6699-26.8799Q13.8672-25.5371 16.5527-25.5371Q19.1406-25.5371 21.3379-26.8799Q23.5352-28.2227 24.9023-30.4443Q26.2695-32.666 26.2695-35.2051ZM55.5176-35.2051Q55.5176-39.4043 52.7588-42.1631Q50-44.9219 45.8496-44.9219Q41.8945-44.9219 39.0137-42.0898Q36.1328-39.2578 36.1328-35.2051Q36.1328-32.666 37.4512-30.4443Q38.7695-28.2227 40.9912-26.8799Q43.2129-25.5371 45.8496-25.5371Q48.4375-25.5371 50.6348-26.8799Q52.832-28.2227 54.1748-30.4443Q55.5176-32.666 55.5176-35.2051ZM84.8633-35.2051Q84.8633-39.4043 82.1045-42.1631Q79.3457-44.9219 75.1465-44.9219Q71.1914-44.9219 68.3105-42.0898Q65.4297-39.2578 65.4297-35.2051Q65.4297-32.666 66.748-30.4443Q68.0664-28.2227 70.2637-26.8799Q72.4609-25.5371 75.1465-25.5371Q77.7344-25.5371 79.9316-26.8799Q82.1289-28.2227 83.4961-30.4443Q84.8633-32.666 84.8633-35.2051Z"/>
  </g>
  <g id="Bold-S" transform="matrix(1 0 0 1 2294.74 696)">
   <path d="M25.1953-35.2051Q25.1953-39.1113 22.5586-41.7236Q19.9219-44.3359 15.9668-44.3359Q12.2559-44.3359 9.5459-41.6748Q6.83594-39.0137 6.83594-35.2051Q6.83594-32.7637 8.08105-30.6885Q9.32617-28.6133 11.4014-27.3682Q13.4766-26.123 15.9668-26.123Q18.457-26.123 20.5566-27.3682Q22.6562-28.6133 23.9258-30.6885Q25.1953-32.7637 25.1953-35.2051ZM54.3457-35.2051Q54.3457-39.1113 51.7334-41.7236Q49.1211-44.3359 45.2148-44.3359Q41.5039-44.3359 38.8184-41.6748Q36.1328-39.0137 36.1328-35.2051Q36.1328-32.7637 37.3535-30.6885Q38.5742-28.6133 40.6494-27.3682Q42.7246-26.123 45.2148-26.123Q47.7051-26.123 49.7803-27.3682Q51.8555-28.6133 53.1006-30.6885Q54.3457-32.7637 54.3457-35.2051ZM83.6426-35.2051Q83.6426-39.1113 81.0059-41.7236Q78.3691-44.3359 74.5117-44.3359Q70.7031-44.3359 67.9932-41.6748Q65.2832-39.0137 65.2832-35.2051Q65.2832-32.7637 66.5283-30.6885Q67.7734-28.6133 69.873-27.3682Q71.9727-26.123 74.5117-26.123Q76.9531-26.123 79.0283-27.3682Q81.1035-28.6133 82.373-30.6885Q83.6426-32.7637 83.6426-35.2051Z"/>
  </g>
  <g id="Semibold-S" transform="matrix(1 0 0 1 1998.47 696)">
   <path d="M24.4141-35.2051Q24.4141-38.916 21.875-41.4307Q19.3359-43.9453 15.5762-43.9453Q12.0117-43.9453 9.42383-41.4062Q6.83594-38.8672 6.83594-35.2051Q6.83594-32.8125 8.03223-30.835Q9.22852-28.8574 11.2061-27.6855Q13.1836-26.5137 15.5762-26.5137Q18.0176-26.5137 20.0195-27.6855Q22.0215-28.8574 23.2178-30.835Q24.4141-32.8125 24.4141-35.2051ZM53.5156-35.2051Q53.5156-38.916 51.001-41.4307Q48.4863-43.9453 44.7754-43.9453Q41.2109-43.9453 38.6475-41.4062Q36.084-38.8672 36.084-35.2051Q36.084-32.8125 37.2559-30.835Q38.4277-28.8574 40.4053-27.6855Q42.3828-26.5137 44.7754-26.5137Q47.168-26.5137 49.1455-27.6855Q51.123-28.8574 52.3193-30.835Q53.5156-32.8125 53.5156-35.2051ZM82.7637-35.2051Q82.7637-38.916 80.249-41.4307Q77.7344-43.9453 74.0234-43.9453Q70.3613-43.9453 67.7734-41.4062Q65.1855-38.8672 65.1855-35.2051Q65.1855-32.8125 66.3818-30.835Q67.5781-28.8574 69.5801-27.6855Q71.582-26.5137 74.0234-26.5137Q76.3672-26.5137 78.3691-27.6855Q80.3711-28.8574 81.5674-30.835Q82.7637-32.8125 82.7637-35.2051Z"/>
  </g>
  <g id="Medium-S" transform="matrix(1 0 0 1 1702.07 696)">
   <path d="M23.8281-35.2051Q23.8281-38.7695 21.3623-41.2109Q18.8965-43.6523 15.2832-43.6523Q11.8164-43.6523 9.32617-41.1865Q6.83594-38.7207 6.83594-35.2051Q6.83594-32.9102 7.9834-31.0059Q9.13086-29.1016 11.0596-27.9541Q12.9883-26.8066 15.2832-26.8066Q17.627-26.8066 19.5801-27.9541Q21.5332-29.1016 22.6807-31.0059Q23.8281-32.9102 23.8281-35.2051ZM52.9297-35.2051Q52.9297-38.7695 50.4883-41.2109Q48.0469-43.6523 44.4824-43.6523Q41.0156-43.6523 38.5498-41.1865Q36.084-38.7207 36.084-35.2051Q36.084-32.9102 37.207-31.0059Q38.3301-29.1016 40.2344-27.9541Q42.1387-26.8066 44.4824-26.8066Q46.7773-26.8066 48.7061-27.9541Q50.6348-29.1016 51.7822-31.0059Q52.9297-32.9102 52.9297-35.2051ZM82.1289-35.2051Q82.1289-38.7695 79.6631-41.2109Q77.1973-43.6523 73.6816-43.6523Q70.1172-43.6523 67.627-41.1865Q65.1367-38.7207 65.1367-35.2051Q65.1367-32.9102 66.2842-31.0059Q67.4316-29.1016 69.3604-27.9541Q71.2891-26.8066 73.6816-26.8066Q75.9766-26.8066 77.9053-27.9541Q79.834-29.1016 80.9814-31.0059Q82.1289-32.9102 82.1289-35.2051Z"/>
  </g>
  <g id="Regular-S" transform="matrix(1 0 0 1 1405.78 696)">
   <path d="M23.0957-35.2051Q23.0957-38.5742 20.7031-40.918Q18.3105-43.2617 14.8926-43.2617Q11.5723-43.2617 9.2041-40.918Q6.83594-38.5742 6.83594-35.2051Q6.83594-32.959 7.93457-31.1523Q9.0332-29.3457 10.8643-28.2715Q12.6953-27.1973 14.8926-27.1973Q17.1875-27.1973 19.043-28.2715Q20.8984-29.3457 21.9971-31.1523Q23.0957-32.959 23.0957-35.2051ZM52.0996-35.2051Q52.0996-38.5742 49.7559-40.918Q47.4121-43.2617 44.043-43.2617Q40.7227-43.2617 38.3789-40.918Q36.0352-38.5742 36.0352-35.2051Q36.0352-32.959 37.1094-31.1523Q38.1836-29.3457 40.0146-28.2715Q41.8457-27.1973 44.043-27.1973Q46.2891-27.1973 48.1201-28.2715Q49.9512-29.3457 51.0254-31.1523Q52.0996-32.959 52.0996-35.2051ZM81.2988-35.2051Q81.2988-38.5742 78.9307-40.918Q76.5625-43.2617 73.2422-43.2617Q69.8242-43.2617 67.4316-40.918Q65.0391-38.5742 65.0391-35.2051Q65.0391-32.959 66.1377-31.1523Q67.2363-29.3457 69.0918-28.2715Q70.9473-27.1973 73.2422-27.1973Q75.4395-27.1973 77.2705-28.2715Q79.1016-29.3457 80.2002-31.1523Q81.2988-32.959 81.2988-35.2051Z"/>
  </g>
  <g id="Light-S" transform="matrix(1 0 0 1 1111.17 696)">
   <path d="M21.582-35.2051Q21.582-38.2324 19.4092-40.3809Q17.2363-42.5293 14.1602-42.5293Q11.1328-42.5293 8.98438-40.3809Q6.83594-38.2324 6.83594-35.2051Q6.83594-33.1543 7.83691-31.5186Q8.83789-29.8828 10.498-28.9062Q12.1582-27.9297 14.1602-27.9297Q16.2109-27.9297 17.8955-28.9062Q19.5801-29.8828 20.5811-31.5186Q21.582-33.1543 21.582-35.2051ZM49.2676-35.2051Q49.2676-38.2324 47.1436-40.3809Q45.0195-42.5293 41.9434-42.5293Q38.916-42.5293 36.792-40.3809Q34.668-38.2324 34.668-35.2051Q34.668-33.1543 35.6445-31.5186Q36.6211-29.8828 38.2812-28.9062Q39.9414-27.9297 41.9434-27.9297Q43.9941-27.9297 45.6543-28.9062Q47.3145-29.8828 48.291-31.5186Q49.2676-33.1543 49.2676-35.2051ZM77.0996-35.2051Q77.0996-38.2324 74.9512-40.3809Q72.8027-42.5293 69.7754-42.5293Q66.6992-42.5293 64.5264-40.3809Q62.3535-38.2324 62.3535-35.2051Q62.3535-33.1543 63.3545-31.5186Q64.3555-29.8828 66.04-28.9062Q67.7246-27.9297 69.7754-27.9297Q71.7773-27.9297 73.4375-28.9062Q75.0977-29.8828 76.0986-31.5186Q77.0996-33.1543 77.0996-35.2051Z"/>
  </g>
  <g id="Thin-S" transform="matrix(1 0 0 1 817.213 696)">
   <path d="M19.5312-35.1562Q19.5312-37.793 17.6514-39.6484Q15.7715-41.5039 13.1836-41.5039Q10.5469-41.5039 8.69141-39.6484Q6.83594-37.793 6.83594-35.1562Q6.83594-33.3984 7.71484-31.958Q8.59375-30.5176 10.0098-29.6875Q11.4258-28.8574 13.1836-28.8574Q14.9414-28.8574 16.3818-29.6875Q17.8223-30.5176 18.6768-31.958Q19.5312-33.3984 19.5312-35.1562ZM45.5078-35.1562Q45.5078-37.793 43.6768-39.6484Q41.8457-41.5039 39.209-41.5039Q36.5723-41.5039 34.7168-39.6484Q32.8613-37.793 32.8613-35.1562Q32.8613-33.3984 33.7402-31.958Q34.6191-30.5176 36.0352-29.6875Q37.4512-28.8574 39.209-28.8574Q40.9668-28.8574 42.3828-29.6875Q43.7988-30.5176 44.6533-31.958Q45.5078-33.3984 45.5078-35.1562ZM71.582-35.1562Q71.582-37.793 69.7021-39.6484Q67.8223-41.5039 65.2344-41.5039Q62.5977-41.5039 60.7178-39.6484Q58.8379-37.793 58.8379-35.1562Q58.8379-33.3984 59.7168-31.958Q60.5957-30.5176 62.0361-29.6875Q63.4766-28.8574 65.2344-28.8574Q66.9434-28.8574 68.3838-29.6875Q69.8242-30.5176 70.7031-31.958Q71.582-33.3984 71.582-35.1562Z"/>
  </g>
  <g id="Ultralight-S" transform="matrix(1 0 0 1 521.943 696)">
   <path d="M18.5059-35.1562Q18.5059-37.5977 16.7725-39.3066Q15.0391-41.0156 12.6465-41.0156Q10.2539-41.0156 8.54492-39.3066Q6.83594-37.5977 6.83594-35.1562Q6.83594-33.5449 7.6416-32.2266Q8.44727-30.9082 9.76562-30.127Q11.084-29.3457 12.6465-29.3457Q14.2578-29.3457 15.5762-30.127Q16.8945-30.9082 17.7002-32.2266Q18.5059-33.5449 18.5059-35.1562ZM43.6035-35.1562Q43.6035-37.5977 41.8945-39.3066Q40.1855-41.0156 37.793-41.0156Q35.3516-41.0156 33.6426-39.3066Q31.9336-37.5977 31.9336-35.1562Q31.9336-33.5449 32.7393-32.2266Q33.5449-30.9082 34.8633-30.127Q36.1816-29.3457 37.793-29.3457Q39.4043-29.3457 40.6982-30.127Q41.9922-30.9082 42.7979-32.2266Q43.6035-33.5449 43.6035-35.1562ZM68.7012-35.1562Q68.7012-37.5977 66.9922-39.3066Q65.2832-41.0156 62.8906-41.0156Q60.498-41.0156 58.7646-39.3066Q57.0312-37.5977 57.0312-35.1562Q57.0312-33.5449 57.8369-32.2266Q58.6426-30.9082 59.9609-30.127Q61.2793-29.3457 62.8906-29.3457Q64.502-29.3457 65.7959-30.127Q67.0898-30.9082 67.8955-32.2266Q68.7012-33.5449 68.7012-35.1562Z"/>
  </g>
 </g>
</svg>
